<svg width="3000" height="3000" viewBox="0 0 3000 3000" fill="none" xmlns="http://www.w3.org/2000/svg">
<path d="M433.524 2309.92H2498.87C2477.08 2164.78 2398.89 2043.31 2292.85 1980.34C2253.6 1956.77 2210.39 1941.31 2164.97 1935.64C2136.89 1819.81 2088.23 1714.69 2024.12 1626.38C1900.7 1456.51 1719.87 1349.4 1518.36 1349.4C1240.94 1349.4 1002.82 1552.55 899.408 1842.84C886.344 1841.22 873.145 1839.99 859.789 1839.99C664.39 1839.99 506.15 2031.95 506.15 2268.58C506.15 2270.98 506.15 2272.99 506.306 2275.06C480.141 2281.71 455.633 2293.73 433.524 2309.92Z" fill="#DCF4E6"/>
<path d="M1119.86 2309.92H364.292C384.234 2273.93 426.61 2285.09 472.231 2284.13C480.758 2257.22 504.386 2257.79 555.286 2266.07C490.802 2207.27 510.92 2149.49 623.38 2187.15C494.928 2012.28 694.054 1972.31 723.459 1968.82C760.511 1964.4 930.838 1991.63 840.56 2173.73C949.925 2128.34 979.845 2182 897.306 2276.4C976.157 2280.09 1070.64 2297.41 1119.86 2309.92ZM2635.71 2309.92H1316.01C1401.62 2290.04 1579 2266.49 1658.8 2264.81C1673.71 2217.75 1715.04 2218.73 1804.07 2233.23C1691.28 2130.37 1726.47 2029.31 1923.18 2095.18C1698.5 1789.3 2046.8 1719.4 2098.23 1713.28C2163.04 1705.55 2460.97 1753.19 2303.06 2071.71C2494.35 1992.32 2546.69 2086.16 2402.32 2251.28C2540.24 2257.75 2589.18 2273.93 2635.71 2309.92Z" fill="#93E5B6"/>
<path d="M1511.9 2314.24C1553.02 2314.24 1584.15 2280.79 1581.29 2239.66L1474.03 698.827C1471.17 657.701 1435.39 624.241 1394.26 624.241H647.868C606.743 624.241 575.611 657.701 578.473 698.827L685.725 2239.66C688.588 2280.79 724.377 2314.24 765.503 2314.24H1511.9Z" fill="#549BEC"/>
<path d="M1508.11 2259.77C1519.19 2259.77 1527.59 2250.75 1526.81 2239.66L1419.56 698.827C1418.79 687.735 1409.14 678.714 1398.05 678.714H651.66C640.568 678.714 632.175 687.735 632.947 698.827L740.198 2239.66C740.97 2250.75 750.619 2259.77 761.711 2259.77H1508.11Z" fill="#CDEEFF"/>
<path opacity="0.5" d="M890.575 1002.33H1329.84C1343.1 1002.33 1354.09 1012.61 1354.97 1025.84L1370.02 1251.83C1370.99 1266.37 1359.46 1278.69 1344.89 1278.69H905.625C892.365 1278.69 881.377 1268.41 880.495 1255.18L865.443 1029.19C864.476 1014.65 876.006 1002.33 890.575 1002.33ZM781.043 1411.32H1220.31C1233.57 1411.32 1244.56 1421.6 1245.44 1434.83L1260.49 1660.82C1261.46 1675.36 1249.93 1687.68 1235.36 1687.68H796.095C782.835 1687.68 771.846 1677.4 770.965 1664.17L755.914 1438.18C754.946 1423.64 766.475 1411.32 781.043 1411.32Z" fill="white"/>
<path d="M1165.91 2290.04L1138.38 1875.61L1043.16 1573.05C1043.16 1573.05 982.936 1485.23 1035.16 1386.86C1035.16 1386.86 1232.87 1385.94 1251.31 1403.44C1269.75 1420.93 1284.67 1877.62 1284.67 1877.62L1250.65 2290.04L1165.91 2290.04Z" fill="#009444"/>
<path d="M1043.14 1573.09L1138.41 1875.58L1165.9 2290.03H1250.64L1273.86 2008.41C1242.29 1990 1170.07 1945.81 1172.61 1928.3C1175.88 1905.98 1208.18 1888.47 1215.44 1877.94C1222.78 1867.42 1167.8 1831.04 1170.98 1829.95C1174.24 1828.86 1204.91 1822.96 1222.78 1805C1240.57 1786.94 1176.69 1793.84 1170.16 1771.25C1163.72 1748.56 1164.54 1523.83 1170.16 1524.83C1175.24 1525.74 1237.94 1501.06 1264.34 1485.09C1260.35 1439.72 1255.9 1407.88 1251.27 1403.43C1232.86 1385.92 1035.16 1386.83 1035.16 1386.83C982.898 1485.27 1043.14 1573.09 1043.14 1573.09Z" fill="#097C3A"/>
<path d="M1037.19 2290.04H952.914L996.406 1882.73L941.284 1565.6C941.284 1565.6 912.467 1489.82 955.135 1384.98C955.135 1384.98 1124.85 1369.77 1141.69 1388.81C1158.54 1407.85 1138.38 1875.61 1138.38 1875.61L1037.19 2290.04Z" fill="#009444"/>
<path d="M941.254 1565.56L996.417 1882.75L952.958 2290.03H1037.15L1138.41 1875.59C1138.41 1875.59 1139.37 1865.12 1142.09 1780.11C1138.37 1772.4 995.779 1808.36 1000.13 1766.36C1004.4 1724.26 957.584 1510.86 986.709 1497.97C1005.04 1489.81 1088.78 1510.13 1148.3 1526.37C1148.84 1452.88 1147.39 1395.27 1141.67 1388.82C1124.89 1369.77 955.135 1385.01 955.135 1385.01C912.493 1489.81 941.254 1565.56 941.254 1565.56Z" fill="#097C3A"/>
<path d="M1247.25 1032.1L1301.16 1103.59L1584.51 1082.35L1590.8 1145.28C1590.8 1145.28 1327.8 1197.39 1303.04 1191.96C1278.29 1186.52 1178.95 1120.57 1178.95 1120.57L1247.25 1032.1Z" fill="#C18C7C"/>
<path d="M1237.68 951.712C1237.68 951.712 1263.22 1054.9 1281.91 1054.9C1288.71 1054.9 1254.83 1131.71 1218.55 1133.18C1183.2 1134.62 1159.2 1058.61 1159.2 1058.61C1159.2 1058.61 1134.98 981.948 1145.26 959.005C1160.86 924.217 1237.68 951.712 1237.68 951.712Z" fill="#FFC439"/>
<path d="M1270.01 1455.7C1247.23 1495.43 1111.68 1480.14 1021.22 1445.16C996.63 1435.69 975.448 1424.76 960.684 1413.03C947.285 1402.5 939.275 1391.27 939.048 1380C937.342 1310.48 1017.36 998.574 1116.29 911.258C1174.86 909.571 1207.75 921.753 1207.75 921.753C1207.75 921.753 1229.18 1026.98 1248.35 1144.54C1254.45 1181.99 1260.26 1220.68 1265.07 1257.65C1277.34 1350.8 1283.04 1432.82 1270.01 1455.7Z" fill="#009444"/>
<path d="M1189.96 919.358C1189.96 919.358 1206.57 1365.07 1177.47 1475.31C1177.47 1475.31 1231.18 1360.5 1189.96 919.358Z" fill="#097C3A"/>
<path d="M1021.22 1445.16C996.63 1435.69 975.448 1424.76 960.684 1413.03C942.718 1321.13 1070.85 1000.44 1070.85 1000.44C1070.85 1000.44 1154.22 989.055 1099.54 1033.96C1049.33 1075.19 1024.92 1392.36 1021.22 1445.16ZM1118.13 1365.07C1118.13 1365.07 1091.5 1420.01 1062.97 1426.65C1062.97 1426.65 1112.47 1450.79 1118.13 1365.07Z" fill="#FFC439"/>
<path d="M1153.35 832.062L1128.69 900.959L1193.1 935.782L1202.53 928.505L1212.75 864.538L1153.35 832.062Z" fill="#D7A28E"/>
<path d="M1192.16 930.673C1165.74 929.584 1152.06 889.549 1133.74 886.854C1133.74 886.854 1116.83 908.563 1116.29 911.258C1115.75 913.953 1152.67 956.802 1163.99 961.922C1175.31 967.043 1192.84 938.452 1192.84 938.452C1192.84 938.452 1193.1 958.958 1210.34 954.376C1227.59 949.795 1211.83 915.234 1211.83 915.234L1205.61 909.213C1205.61 909.213 1201.71 931.066 1192.16 930.673Z" fill="#FFC439"/>
<path d="M1149.97 851.477C1149.97 851.477 1110.77 774.405 1168.68 734.597C1226.59 694.79 1268.07 740.702 1266.91 763.245C1265.27 794.907 1279.85 830.91 1279.85 830.91C1279.85 830.91 1288.25 872.941 1269.76 887.954C1251.27 902.968 1200.06 882.759 1200.06 882.759L1149.97 851.477Z" fill="#D7A28E"/>
<path d="M1238.78 800.483C1239.24 799.18 1244.99 819.556 1248.44 822.314C1251.88 825.071 1238.09 830.127 1236.26 829.898C1234.42 829.668 1244.12 822.084 1244.12 822.084C1244.12 822.084 1236.95 805.768 1238.78 800.483ZM1257.25 784.86C1257.11 789.46 1259.42 793.265 1262.41 793.357C1265.4 793.45 1267.93 789.795 1268.07 785.194C1268.22 780.594 1265.91 776.789 1262.92 776.697C1259.93 776.604 1257.4 780.26 1257.25 784.86ZM1266.93 763.291C1266.93 763.291 1267.9 766.867 1267.18 767.898C1266.46 768.93 1262.46 767.751 1258.3 770.355C1254.15 772.959 1250.48 774.942 1250.48 774.942C1250.48 774.942 1246.81 771.024 1249.42 767.706C1252.04 764.388 1266.42 760.076 1266.93 763.291Z" fill="#11405C"/>
<path d="M1263.31 782.899C1263.39 784.453 1264.72 785.647 1266.27 785.564C1267.83 785.482 1269.02 784.155 1268.94 782.6C1268.85 781.046 1267.53 779.853 1265.97 779.935C1264.42 780.017 1263.23 781.344 1263.31 782.899Z" fill="#DCF4E6"/>
<path d="M1209.39 788.513C1209.25 793.114 1211.55 796.918 1214.54 797.01C1217.53 797.103 1220.07 793.448 1220.21 788.847C1220.35 784.247 1218.04 780.442 1215.06 780.349C1212.07 780.257 1209.53 783.913 1209.39 788.513ZM1219.07 766.944C1219.07 766.944 1220.03 770.519 1219.31 771.55C1218.59 772.582 1214.59 771.403 1210.44 774.007C1206.28 776.611 1202.61 778.594 1202.61 778.594C1202.61 778.594 1198.94 774.676 1201.56 771.358C1204.17 768.041 1218.56 763.73 1219.07 766.944Z" fill="#11405C"/>
<path d="M1215.44 786.552C1215.52 788.106 1216.85 789.3 1218.41 789.217C1219.96 789.135 1221.15 787.808 1221.07 786.253C1220.99 784.699 1219.66 783.506 1218.11 783.588C1216.55 783.671 1215.36 784.998 1215.44 786.552Z" fill="#DCF4E6"/>
<path d="M1266.77 855.861C1267.54 856.77 1267.08 858.967 1264.61 861.156C1262.26 863.394 1257.52 865.211 1252.51 864.657C1242.38 863.325 1237.76 856.349 1239.43 854.517C1241.01 852.443 1247.13 854.631 1253.47 855.296C1259.54 856.183 1264.82 853.902 1266.77 855.861Z" fill="#11405C"/>
<path d="M1271.38 886.705C1271.8 887.776 1268.36 890.596 1261.78 892.827C1255.27 895.153 1245.6 896.697 1235.07 895.899C1213.83 894.364 1198.83 885.039 1200.06 882.759C1201.12 880.384 1216.5 885.171 1235.76 886.514C1254.99 888.246 1270.34 884.138 1271.38 886.705Z" fill="#C18C7C"/>
<path d="M1138.43 762.73C1141.68 762.161 1144.92 761.486 1148.16 760.899C1143.61 765.547 1142.3 791.654 1152.49 796.793C1160.89 801.025 1148.43 853.645 1148.43 853.645C1148.43 853.645 1150.63 842.637 1126.2 840.869C1107.14 839.489 1112.18 815.07 1112.18 815.07C1086.92 806.96 1098.89 776.133 1098.89 776.133C1098.89 776.133 1112.66 767.243 1138.43 762.73Z" fill="#11405C"/>
<path d="M1096.17 783.688L1144.28 777.069L1275.08 759.136L1365.11 746.685C1365.11 746.685 1371.03 741.63 1349.2 742.247C1327.29 742.967 1276.17 741.163 1276.17 741.163C1276.17 741.163 1236.48 640.944 1160.32 658.626C1152.71 660.374 1146.06 663.072 1140.13 666.436C1120.48 677.507 1109.34 696.147 1103.15 715.354C1092.23 748.721 1096.17 783.688 1096.17 783.688Z" fill="#FFC439"/>
<path d="M1168.89 772.995C1168.89 772.995 1162.85 764.177 1155.04 763.547C1147.23 762.917 1135.99 771.477 1140.75 787.865C1145.51 804.253 1148.11 815.939 1159.57 815.127C1171.04 814.314 1169.54 773.862 1168.89 772.995Z" fill="#D7A28E"/>
<path d="M1153.16 769.246C1152.27 770.017 1156.66 775.545 1158.83 783.233C1158.95 783.646 1159 784.034 1159.09 784.437C1158.67 784.251 1158.24 784.031 1157.78 783.67C1155.53 782.168 1153.51 780.381 1152.7 780.951C1151.93 781.432 1152.69 784.392 1155.88 786.6C1156.97 787.369 1158.37 787.732 1159.57 787.675C1159.93 793.218 1158.1 797.298 1158.96 797.8C1159.34 798.048 1160.91 796.847 1162.13 794.014C1163.42 791.245 1164 786.721 1162.78 782.18C1160.12 773.056 1153.82 768.43 1153.16 769.246Z" fill="#11405C"/>
<path d="M1153.83 755.538C1182.09 754.123 1276.17 741.162 1276.17 741.162C1276.17 741.162 1236.48 640.943 1160.32 658.625C1152.71 660.373 1146.06 663.071 1140.13 666.435C1152.13 671.254 1169.49 673.533 1181.18 670.201C1208.76 662.247 1246.42 703.91 1236.7 723.48C1226.91 743.054 1153.83 755.538 1153.83 755.538ZM1098.27 767.186C1098.42 767.79 1116.84 770.019 1114.92 760.644C1113 751.269 1098.48 751.352 1098.48 751.352C1098.48 751.352 1097.25 763.092 1098.27 767.186Z" fill="#DBA12C"/>
<path d="M1749.53 999.614L1593.02 966.363L1436.51 989.327L1590.26 1042.35L1749.53 999.614Z" fill="#FFC439"/>
<path d="M1586.01 1201.71L1433.68 1164.52L1436.51 989.327L1590.8 1022.16L1586.01 1201.71Z" fill="#DBA12C"/>
<path opacity="0.5" d="M1679.5 984.736L1630.53 974.622L1491.82 1000.19L1490.14 1035.39L1509.42 1041.35L1512.99 1035.61L1514.86 1043.74L1529.58 1048.83L1530.07 1011.13L1679.5 984.736Z" fill="#CDEEFF"/>
<path opacity="0.5" d="M1512.85 1183.91L1512.94 1156.58L1503.49 1154.75L1501.41 1158.08L1500.32 1153.41L1475.61 1146.4L1472.71 1174.08L1512.85 1183.91Z" fill="#CDEEFF"/>
<path d="M1749.53 999.614L1744.5 1179.57L1586.01 1201.71L1590.8 1022.16L1749.53 999.614Z" fill="#FFC439"/>
<path d="M1749.53 999.614L1590.8 1022.16C1590.8 1022.16 1640.32 1027.98 1673.21 1022.16C1706.1 1016.33 1749.53 999.614 1749.53 999.614Z" fill="#DBA12C"/>
<path d="M1191.44 1048.83L1295.88 1132.98L1539.2 1111.36L1556.91 1160.27C1556.91 1160.27 1298.89 1225.86 1273.47 1220.28C1248.04 1214.71 1125.87 1137.87 1125.87 1137.87L1191.44 1048.83Z" fill="#D7A28E"/>
<path d="M1097.32 930.931C1097.32 930.931 1182.86 1024.75 1238.16 1061.18C1243.98 1065.02 1185.66 1162.53 1148.4 1164.04C1112.11 1165.52 1044.9 1062.05 1044.9 1062.05C1044.9 1062.05 1020.03 983.333 1030.59 959.773C1046.61 924.051 1097.32 930.931 1097.32 930.931Z" fill="#FFC439"/>
<path d="M1579.13 1059.29C1587.67 1061.52 1585.39 1070.2 1585.39 1070.2L1578.43 1096.77L1647.25 1087.22C1647.25 1087.22 1651.44 1093.54 1647.35 1096.95C1645.48 1098.51 1612.23 1106.64 1612.23 1106.64L1658.19 1100.3C1658.19 1100.3 1661.73 1107.7 1657.25 1109.5C1655.1 1110.36 1614.14 1122.96 1614.14 1122.96L1656.78 1116.25C1656.78 1116.25 1656.27 1125.17 1654.61 1125.84C1646.08 1129.31 1614.69 1138.68 1614.69 1138.68L1645.62 1132.56C1645.62 1132.56 1648.11 1139.94 1641.65 1141.39C1633.92 1143.12 1597.57 1155.64 1585.12 1156.02C1568.8 1156.53 1521.87 1165.15 1521.87 1165.15C1521.87 1165.15 1511.33 1121.88 1510.12 1117.55C1516.5 1116.26 1539.2 1111.36 1539.2 1111.36C1554.18 1098.29 1559.57 1079.01 1579.13 1059.29Z" fill="#D7A28E"/>
<path d="M1605.77 1107.29C1605.88 1108.01 1610.49 1107.87 1616.06 1106.97C1621.63 1106.08 1626.04 1104.77 1625.93 1104.05C1625.81 1103.33 1621.21 1103.47 1615.64 1104.37C1610.07 1105.26 1605.65 1106.57 1605.77 1107.29ZM1606.89 1124C1607.04 1124.71 1611.36 1124.42 1616.54 1123.35C1621.73 1122.27 1625.81 1120.82 1625.66 1120.11C1625.51 1119.39 1621.19 1119.68 1616.01 1120.76C1610.82 1121.83 1606.74 1123.28 1606.89 1124ZM1606.63 1139.7C1606.76 1140.42 1610.37 1140.38 1614.71 1139.61C1619.04 1138.84 1622.45 1137.64 1622.32 1136.92C1622.2 1136.2 1618.58 1136.24 1614.25 1137.01C1609.91 1137.78 1606.5 1138.98 1606.63 1139.7Z" fill="#C18C7C"/>
<path d="M1606.21 1133.23C1605.53 1133.65 1606.37 1135.84 1606.45 1138.38C1606.6 1140.94 1605.94 1143.07 1606.53 1143.48C1607.1 1143.97 1609.26 1141.76 1609.09 1138.26C1608.91 1134.77 1606.72 1132.83 1606.21 1133.23ZM1606.32 1118.47C1605.65 1118.88 1606.48 1121.07 1606.57 1123.62C1606.72 1126.18 1606.05 1128.3 1606.65 1128.71C1607.21 1129.2 1609.37 1126.99 1609.21 1123.5C1609.02 1120.01 1606.83 1118.06 1606.32 1118.47ZM1605.39 1102.68C1604.72 1103.1 1605.55 1105.28 1605.64 1107.83C1605.79 1110.39 1605.13 1112.52 1605.72 1112.92C1606.28 1113.42 1608.44 1111.21 1608.28 1107.71C1608.09 1104.22 1605.91 1102.28 1605.39 1102.68Z" fill="#C18C7C"/>
<path d="M2233.54 986.502C2233.54 986.502 2322.89 1088.05 2322.89 1122.33C2322.89 1156.6 2262.33 1180.57 2262.33 1180.57L2221.89 1167.66C2221.89 1167.66 2146.13 985.903 2152.29 971.729C2158.45 957.554 2233.54 986.502 2233.54 986.502Z" fill="#FFC439"/>
<path d="M2298.01 1102.43C2298.01 1102.43 2347.04 1198.17 2347.04 1221.61C2347.04 1245.06 2075.67 1421.86 2075.67 1421.86L2058.21 1371.42L2235.95 1209.88L2206.26 1142.48L2298.01 1102.43Z" fill="#D7A28E"/>
<path d="M2220.41 1010.27C2289.44 1116.58 2322.89 1113.85 2322.89 1122.33C2322.89 1156.6 2262.33 1180.57 2262.33 1180.57L2221.89 1167.66C2221.89 1167.66 2212.16 997.566 2220.41 1010.27Z" fill="#DBA12C"/>
<path d="M2146.32 902.939L2169.96 968.957L2103.29 995.032L2089.4 934.058L2146.32 902.939Z" fill="#D7A28E"/>
<path d="M2183.31 979.082C2182.45 968.097 2178.43 946.959 2168.46 944.108C2158.48 941.258 2093.54 949.924 2089.4 959.746C2085.26 969.568 2093.11 988.145 2093.11 988.145L2183.31 979.082Z" fill="#DBA12C"/>
<path d="M2147.39 915.076C2147.39 915.076 2161.69 855.409 2117.18 824.809C2072.67 794.208 2040.78 829.502 2041.67 846.831C2042.93 871.169 2024.78 891.455 2024.78 891.455L2031.72 898.846C2031.72 898.846 2025.27 931.154 2039.48 942.695C2053.69 954.236 2093.06 938.702 2093.06 938.702L2147.39 915.076Z" fill="#D7A28E"/>
<path d="M2045.54 863.446C2045.65 866.982 2043.88 869.907 2041.58 869.977C2039.28 870.048 2037.33 867.239 2037.22 863.702C2037.11 860.166 2038.89 857.242 2041.18 857.17C2043.48 857.1 2045.43 859.91 2045.54 863.446ZM2038.1 846.866C2038.1 846.866 2037.36 849.614 2037.91 850.407C2038.47 851.201 2041.54 850.294 2044.73 852.296C2047.93 854.298 2050.75 855.822 2050.75 855.822C2050.75 855.822 2053.57 852.811 2051.56 850.26C2049.55 847.709 2038.49 844.394 2038.1 846.866Z" fill="#11405C"/>
<path d="M2040.89 861.938C2040.82 863.133 2039.8 864.05 2038.61 863.986C2037.41 863.923 2036.5 862.904 2036.56 861.708C2036.62 860.514 2037.64 859.596 2038.84 859.659C2040.03 859.723 2040.95 860.743 2040.89 861.938Z" fill="#DCF4E6"/>
<path d="M2049.57 887.459C2046.99 892.978 2048.18 898.984 2052.22 900.873C2056.27 902.763 2061.64 899.821 2064.22 894.302C2066.8 888.783 2065.61 882.777 2061.56 880.888C2057.52 878.998 2052.15 881.94 2049.57 887.459Z" fill="#C18C7C"/>
<path d="M2109.64 851.444C2110.32 852.036 2106.95 856.286 2105.28 862.196C2105.19 862.513 2105.15 862.812 2105.08 863.122C2105.4 862.979 2105.73 862.81 2106.09 862.532C2107.82 861.377 2109.37 860.003 2109.99 860.442C2110.58 860.812 2110 863.087 2107.55 864.785C2106.71 865.375 2105.63 865.655 2104.71 865.611C2104.43 869.872 2105.84 873.008 2105.18 873.394C2104.89 873.584 2103.68 872.661 2102.74 870.484C2101.75 868.356 2101.3 864.879 2102.25 861.387C2104.28 854.372 2109.13 850.816 2109.64 851.444ZM2030.32 914.733C2029.72 915.432 2030.08 917.121 2031.98 918.803C2033.78 920.524 2037.43 921.92 2041.28 921.495C2049.07 920.471 2052.62 915.109 2051.33 913.7C2050.11 912.106 2045.42 913.788 2040.54 914.299C2035.87 914.981 2031.81 913.226 2030.32 914.733Z" fill="#11405C"/>
<path d="M2038.23 941.735C2037.91 942.558 2040.55 944.726 2045.61 946.441C2050.62 948.229 2058.05 949.416 2066.14 948.803C2082.47 947.623 2094.01 940.455 2093.06 938.702C2092.25 936.877 2080.42 940.556 2065.62 941.588C2050.83 942.919 2039.03 939.762 2038.23 941.735Z" fill="#C18C7C"/>
<path d="M2096.56 856.834C2070.03 858.761 2075.91 835.685 2052.42 837.53C2028.94 839.375 2017.16 787.125 2047.88 769.807C2078.59 752.489 2097.36 756.078 2101.61 767.769C2102.27 759.5 2119.5 727.871 2147.14 744.556C2183.12 766.274 2170.77 800.84 2170.77 800.84C2170.77 800.84 2215.35 747.023 2256.28 769.161C2297.21 791.3 2245.23 836.382 2245.23 836.382C2245.23 836.382 2306.29 868.682 2273.19 876.59C2240.09 884.498 2185.52 860.888 2185.52 860.888C2185.52 860.888 2202.57 892.981 2166.58 901.425C2166.58 901.425 2173.77 926.849 2146.61 928.286C2111.82 930.127 2106.41 908.371 2106.41 908.371C2106.41 908.371 2097.21 886.805 2109.17 882.397C2124.37 876.799 2121.63 847.23 2114.42 844.44C2100.37 839.007 2096.56 856.834 2096.56 856.834Z" fill="#11405C"/>
<path d="M2185.53 860.889C2186.49 859.061 2183.67 855.527 2179.27 851.013C2175.01 846.364 2169.47 840.187 2167.38 832.923C2166.28 829.288 2166.34 825.604 2166.63 822.043C2167.02 818.467 2168.05 815.111 2168.86 812.15C2170.75 806.294 2172.22 802.233 2170.78 800.841C2169.38 799.456 2164.85 801.332 2159.96 807.118C2157.65 810.091 2155.12 813.995 2153.62 819.139C2152.21 824.236 2151.59 830.577 2153.45 836.856C2155.33 843.024 2158.74 848.198 2162.48 851.709C2166.13 855.441 2170.03 857.622 2173.3 859.323C2180.05 862.27 2184.65 862.589 2185.53 860.889Z" fill="#FFC439"/>
<path d="M2039.34 841.441C2046.42 842.574 2050.34 852.326 2048.44 864.15C2046.54 876.013 2039.78 884.056 2032.7 882.923C2025.67 881.797 2021.75 872.044 2023.65 860.181C2025.54 848.358 2032.3 840.315 2039.34 841.441ZM2033.34 878.969C2038.04 879.722 2043 872.81 2044.49 863.517C2045.97 854.264 2043.42 846.149 2038.71 845.396C2034.05 844.649 2029.09 851.561 2027.6 860.814C2026.12 870.108 2028.67 878.222 2033.34 878.969Z" fill="#FFC439"/>
<path d="M1998.02 2267.84H2050.76V2320.1V2352.43L1997.01 2370.31L1998.02 2267.84Z" fill="#D7A28E"/>
<path d="M2049.38 2334.04C2051.86 2332.77 2072.41 2350.42 2061.24 2382.28C2044.88 2428.99 2056.39 2420.41 2056.39 2420.41H2035.1L2037.05 2393.89C2037.05 2393.89 2026.02 2399.24 2011.2 2419.01C1994.81 2422.89 1965.82 2421.93 1946.38 2420.6C1929.93 2419.51 1915.26 2408.38 1911.63 2392.28C1909.5 2382.8 1945.25 2389.23 1956.45 2381.73C1984.36 2363.08 1997.01 2340.86 1997.01 2340.86C1997.01 2340.86 2037.95 2339.96 2049.38 2334.04Z" fill="#DBA12C"/>
<path d="M2004.96 2345.67C1993.76 2357.88 1973.37 2382.3 1963.31 2387.81C1953.26 2393.33 1931.83 2392.01 1933.12 2397.52C1934.42 2403.04 1961.99 2403.36 1979.34 2393.67C1993.68 2385.67 2009.22 2341.03 2004.96 2345.67Z" fill="#FFC439"/>
<path d="M2262.39 1351.83C2262.39 1351.83 2073.56 1336.47 2054.66 1351.83C2035.75 1367.2 1988.04 1802.43 1988.04 1802.43L1990.99 2313.13H2057.16L2121.05 1800.48L2241.1 1529.14C2241.1 1529.14 2305.07 1449.64 2262.39 1351.83Z" fill="#2F627C"/>
<path d="M2214.73 2274.78L2267.26 2270.17L2271.82 2322.23L2274.65 2354.44L2222.67 2376.95L2214.73 2274.78Z" fill="#D7A28E"/>
<path d="M2271.67 2336.25C2274.03 2334.76 2296.04 2350.55 2287.7 2383.26C2275.48 2431.22 2286.19 2421.67 2286.19 2421.67L2264.99 2423.53L2264.61 2396.94C2264.61 2396.94 2254.1 2403.23 2241.05 2424.22C2225.07 2429.52 2196.11 2431.1 2176.62 2431.46C2160.14 2431.82 2144.55 2422.01 2139.53 2406.29C2136.58 2397.03 2172.75 2400.32 2183.26 2391.86C2209.43 2370.85 2220.09 2347.61 2220.09 2347.61C2220.09 2347.61 2260.8 2343.14 2271.67 2336.25Z" fill="#DBA12C"/>
<path d="M2225.94 2356.05C2214.73 2368.26 2194.34 2392.69 2184.28 2398.2C2174.23 2403.71 2152.8 2402.39 2154.1 2407.91C2155.39 2413.42 2182.96 2413.75 2200.31 2404.06C2214.65 2396.05 2230.2 2351.41 2225.94 2356.05Z" fill="#FFC439"/>
<path d="M2338.98 1355.9C2338.98 1355.9 2208.64 1340.37 2191.15 1357.33C2173.67 1374.28 2127.96 1811.23 2127.96 1811.23L2211.68 2320.51L2277.6 2314.73L2263.08 1828.44L2338.98 1529.48C2338.98 1529.48 2372.07 1459.19 2338.98 1355.9Z" fill="#2F627C"/>
<path d="M2127.26 1806.95L2136.18 1735.47L2255.3 1547.3L2175.5 1829.8C2175.5 1829.8 2183.29 1846.48 2205.67 1854.05C2228.05 1861.61 2202.75 1872.41 2185.23 1880.63C2167.72 1888.86 2211.51 1883.99 2210.54 1895.67C2209.56 1907.35 2159.84 1917.08 2162.32 1920C2164.8 1922.91 2188.23 2177.85 2188.23 2177.85L2127.26 1806.95Z" fill="#11405C"/>
<path d="M2374.26 1392.54C2372.93 1421.51 2023.92 1433.92 2014.81 1410.7C2005.69 1387.49 2018.71 1369.32 2027.83 1357.21C2036.95 1345.1 2065.6 1205.82 2048.67 1194.71C2031.74 1183.61 2012.82 1137.18 2023.17 1127.09C2033.53 1117 2030.43 1078.65 2030.43 1078.65C2030.43 1078.65 2067.1 969.641 2091.74 963.586C2116.39 957.53 2165.88 955.512 2201.05 981.753C2236.21 1007.99 2378.17 1307.76 2374.26 1392.54Z" fill="#FFC439"/>
<path d="M2081.62 1142.23C2081.62 1142.23 2107.39 1178.57 2105.74 1206.57C2104.09 1234.58 2069.63 1401.12 2073.19 1396.57C2076.74 1392.03 2117.76 1213.39 2117.76 1205.82C2117.76 1169.48 2081.62 1142.23 2081.62 1142.23Z" fill="#DBA12C"/>
<path d="M1999.96 1072.55L1908.15 1154.46L1678.66 1247.02L1699.01 1293.89L1949.74 1235.78L2066.94 1149.74L1999.96 1072.55Z" fill="#D7A28E"/>
<path d="M1622.66 1223.15C1616.7 1229.14 1622.81 1235.2 1622.81 1235.2L1641.48 1253.73L1580.04 1279.36C1580.04 1279.36 1579.66 1286.62 1584.69 1287.44C1587 1287.82 1618.39 1278.34 1618.39 1278.34L1577.37 1295.48C1577.37 1295.48 1578.06 1303.32 1582.64 1302.62C1584.82 1302.29 1624.76 1292.74 1624.76 1292.74L1586.3 1307.96C1586.3 1307.96 1591.07 1315.07 1592.76 1314.82C1601.49 1313.53 1631.96 1305.98 1631.96 1305.98L1603.46 1315.99C1603.46 1315.99 1605 1323.29 1611.03 1321.34C1618.26 1319.01 1654.35 1311.64 1664.82 1305.89C1678.53 1298.37 1724.48 1287.09 1724.48 1287.09C1724.48 1287.09 1709.09 1241.79 1707.98 1237.63C1702.09 1239.67 1680.96 1246.68 1680.96 1246.68C1662.24 1243.19 1648.41 1229.89 1622.66 1223.15Z" fill="#D7A28E"/>
<path d="M1624.05 1275.72C1624.3 1276.37 1620.43 1278.5 1615.4 1280.48C1610.37 1282.45 1606.09 1283.52 1605.83 1282.87C1605.58 1282.22 1609.45 1280.09 1614.48 1278.12C1619.51 1276.15 1623.79 1275.07 1624.05 1275.72ZM1631.26 1290.06C1631.48 1290.72 1627.77 1292.59 1622.97 1294.22C1618.17 1295.86 1614.1 1296.65 1613.87 1295.99C1613.64 1295.33 1617.35 1293.46 1622.15 1291.83C1626.96 1290.19 1631.03 1289.4 1631.26 1290.06ZM1639.12 1302.89C1639.36 1303.55 1636.36 1305.28 1632.41 1306.75C1628.46 1308.23 1625.05 1308.9 1624.81 1308.24C1624.57 1307.59 1627.57 1305.86 1631.52 1304.38C1635.47 1302.91 1638.87 1302.24 1639.12 1302.89Z" fill="#C18C7C"/>
<path d="M1636.32 1297.35C1637.08 1297.36 1637.45 1299.58 1638.62 1301.72C1639.74 1303.91 1641.33 1305.34 1641.04 1305.96C1640.81 1306.65 1637.95 1305.87 1636.39 1302.91C1634.84 1299.94 1635.7 1297.27 1636.32 1297.35ZM1629.03 1285.22C1629.79 1285.23 1630.17 1287.45 1631.34 1289.59C1632.46 1291.78 1634.04 1293.21 1633.75 1293.83C1633.52 1294.52 1630.67 1293.74 1629.1 1290.78C1627.56 1287.81 1628.41 1285.14 1629.03 1285.22ZM1622.11 1271.74C1622.87 1271.75 1623.25 1273.97 1624.42 1276.11C1625.54 1278.3 1627.12 1279.73 1626.83 1280.35C1626.6 1281.04 1623.75 1280.26 1622.18 1277.3C1620.64 1274.33 1621.49 1271.66 1622.11 1271.74Z" fill="#C18C7C"/>
<path d="M2078.79 978.232C2078.79 978.232 1944.54 1077.38 1944.54 1101.79C1944.54 1126.2 2002.98 1200.76 2018.13 1202.06C2034.1 1192.09 2110.2 1127.5 2110.2 1127.5C2110.2 1127.5 2153.06 1057.91 2149.58 1032.43C2141.2 971.214 2078.79 978.232 2078.79 978.232Z" fill="#FFC439"/>
<path d="M2141.2 995.032C2141.2 995.032 2085.73 970.499 2076.94 978.069C2068.15 985.639 2072.06 987.837 2072.06 987.837C2072.06 987.837 2135.34 1000.45 2141.2 995.032ZM2135.75 1066.78C2135.75 1066.78 2093.27 1132.22 2089.4 1138.57C2085.53 1144.92 2018.13 1202.06 2018.13 1202.06C2018.13 1202.06 2087.52 1159.08 2093.12 1152.73C2098.71 1146.38 2135.75 1066.78 2135.75 1066.78Z" fill="#DBA12C"/>
<path d="M869.023 2371.55L1213.34 2310.17L1147.66 1813.75L846.602 1839.96L869.023 2371.55Z" fill="#91C4F6"/>
<path d="M846.602 1839.96L832.931 1851.67L822.917 1842.03L795.809 2339.49L822.449 2345.58L869.023 2371.55L846.602 1839.96Z" fill="#549BEC"/>
<path d="M1070.58 1892.28C1070.58 1899.47 1074.74 1905.3 1079.88 1905.3C1085.02 1905.3 1089.18 1899.47 1089.18 1892.28C1089.18 1885.09 1085.02 1879.26 1079.88 1879.26C1074.74 1879.26 1070.58 1885.09 1070.58 1892.28ZM953.927 1897.92C953.927 1904.89 957.964 1910.54 962.944 1910.54C967.924 1910.54 971.96 1904.89 971.96 1897.92C971.96 1890.94 967.923 1885.29 962.944 1885.29C957.964 1885.29 953.927 1890.94 953.927 1897.92Z" fill="#549BEC"/>
<path d="M1085.03 1891.96C1088.48 1912.25 1091.93 1932.54 1095.39 1952.83C1098.36 1970.26 1102.19 1987.85 1102.83 2005.57C1103.98 2037.43 1088.55 2064.33 1059.06 2077.38C1044.11 2084 1027.57 2086.34 1011.31 2086.16C999.13 2086.02 984.799 2084.96 977.078 2074.15C968.326 2061.89 977.061 2049.55 985.673 2040.06C995.748 2028.95 1019.37 2019.68 1018.45 2002.49C1017.82 1990.72 1008.69 1981.84 1001.14 1973.81C994.928 1967.2 989.042 1960.33 983.64 1953.03C973.911 1939.9 958.214 1920.12 960.154 1902.69C960.655 1898.19 967.776 1898.14 967.268 1902.69C965.621 1917.48 979.536 1935.22 987.832 1946.77C996.55 1958.9 1007.74 1968.78 1016.69 1980.64C1023.42 1989.57 1028.08 2001.29 1024.12 2012.4C1020.16 2023.52 1008.84 2029.06 1000.25 2036.05C994.205 2040.97 988.355 2046.8 984.123 2053.37C977.051 2064.35 982.809 2073.9 994.461 2077.35C1009.04 2081.66 1028.15 2079.31 1042.55 2075.58C1075.46 2067.06 1096.53 2041.58 1095.78 2007.23C1095.38 1988.99 1091.27 1970.81 1088.21 1952.88C1084.86 1933.2 1081.51 1913.53 1078.16 1893.85C1077.4 1889.37 1084.26 1887.45 1085.03 1891.96Z" fill="#CDEEFF"/>
<path d="M1466.36 2100.05L1187.6 2040.83L908.848 2081.73L1182.69 2176.16L1466.36 2100.05Z" fill="#FFC439"/>
<path d="M1175.11 2459.99L903.814 2393.75L908.848 2081.73L1183.65 2140.2L1175.11 2459.99Z" fill="#DBA12C"/>
<path opacity="0.5" d="M1341.62 2073.55L1254.41 2055.54L1007.37 2101.07L1004.37 2163.77L1038.7 2174.38L1045.07 2164.16L1048.4 2178.65L1074.61 2187.71L1075.48 2120.57L1341.62 2073.55Z" fill="#CDEEFF"/>
<path opacity="0.5" d="M1044.82 2428.29L1044.98 2379.62L1028.15 2376.35L1024.44 2382.29L1022.5 2373.97L978.481 2361.48L973.317 2410.79L1044.82 2428.29Z" fill="#CDEEFF"/>
<path d="M1466.36 2100.05L1457.4 2420.56L1175.11 2460L1183.65 2140.2L1466.36 2100.05Z" fill="#FFC439"/>
<path d="M1466.36 2100.05L1183.65 2140.2C1183.65 2140.2 1271.85 2150.58 1330.43 2140.2C1389 2129.82 1466.36 2100.05 1466.36 2100.05Z" fill="#DBA12C"/>
<path d="M1075.48 2175.2L854.925 2128.34L634.367 2160.7L851.042 2235.42L1075.48 2175.2Z" fill="#FFC439"/>
<path d="M845.047 2460L630.385 2407.58L634.367 2160.7L851.801 2206.96L845.047 2460Z" fill="#DBA12C"/>
<path opacity="0.5" d="M976.793 2154.23L907.783 2139.98L712.319 2176.01L709.946 2225.61L737.109 2234.01L742.147 2225.92L744.783 2237.38L765.523 2244.56L766.215 2191.43L976.793 2154.23Z" fill="#CDEEFF"/>
<path opacity="0.5" d="M741.953 2434.91L742.076 2396.4L728.761 2393.81L725.828 2398.52L724.295 2391.93L689.463 2382.05L685.377 2421.06L741.953 2434.91Z" fill="#CDEEFF"/>
<path d="M1075.48 2175.2L1068.39 2428.79L845.047 2460L851.801 2206.96L1075.48 2175.2Z" fill="#FFC439"/>
<path d="M1075.48 2175.2L851.801 2206.97C851.801 2206.97 921.589 2215.18 967.935 2206.97C1014.28 2198.75 1075.48 2175.2 1075.48 2175.2Z" fill="#DBA12C"/>
<path d="M1198.82 1387.97L1283.5 1425.48L1279.06 1466.41L1207.51 1628.02L1196.03 1622.98L1111.38 1585.47L1099.93 1580.39L1171.52 1418.82L1198.82 1387.97ZM1229.3 1433.6C1234.26 1435.8 1240.06 1433.51 1242.28 1428.57C1244.48 1423.57 1242.27 1417.72 1237.25 1415.5C1232.31 1413.32 1226.42 1415.54 1224.19 1420.54C1222.02 1425.55 1224.28 1431.38 1229.3 1433.6Z" fill="#FFC439"/>
<path d="M1215.37 1480.48L1218.31 1473.85L1206.82 1468.78L1203.83 1475.38C1192.94 1473.06 1184.41 1478.45 1179.07 1490.61L1177.8 1493.39L1191.14 1499.32L1192.81 1495.62C1195.63 1489.2 1199.28 1487.88 1203.72 1489.89C1208.2 1491.85 1209.68 1495.43 1206.87 1501.84C1198.71 1520.24 1170.75 1508.94 1159.43 1534.61C1154.09 1546.73 1155.87 1556.9 1164.94 1563.34L1162.03 1569.88L1173.56 1575L1176.48 1568.44C1187.5 1570.87 1196.04 1565.33 1201.42 1553.16L1204.1 1547.01L1190.84 1541.16L1187.74 1548.17C1184.88 1554.57 1181.04 1555.66 1176.59 1553.65C1172.09 1551.67 1170.28 1548.12 1173.12 1541.71C1181.28 1523.26 1209.23 1534.58 1220.53 1508.98C1225.88 1496.94 1224.28 1487.04 1215.37 1480.48Z" fill="#DBA12C"/>
<path d="M1842.23 669.105L1873.94 832.382C1873.94 832.382 1771.24 884.343 1767.49 880.583C1763.75 876.823 1698.92 722.427 1698.92 722.427L1842.23 669.105Z" fill="#F2CD33"/>
<path d="M1789.67 741.145C1782.53 744.248 1779.76 750.633 1784.86 758.248C1789.88 765.896 1797.86 767.61 1805 764.507C1812.22 761.371 1814.98 754.986 1809.96 747.338C1804.87 739.722 1796.81 738.041 1789.67 741.145ZM1766.01 752.316L1753.61 757.706L1814.94 793.966L1827.35 788.576L1766.01 752.316ZM1801.02 751.225C1803.12 754.422 1802.76 756.458 1800.5 757.438C1798.25 758.418 1795.83 757.591 1793.73 754.394C1791.62 751.198 1792.06 749.129 1794.32 748.149C1796.57 747.169 1798.91 748.029 1801.02 751.225ZM1775.81 781.841C1768.67 784.944 1765.97 791.297 1771.07 798.912C1776.09 806.56 1784.08 808.274 1791.22 805.171C1798.36 802.068 1801.12 795.683 1796.03 788.067C1791.01 780.42 1782.95 778.738 1775.81 781.841ZM1787.23 791.889C1789.34 795.086 1788.97 797.122 1786.64 798.134C1784.46 799.081 1782.05 798.255 1779.94 795.058C1777.84 791.861 1778.28 789.793 1780.46 788.846C1782.71 787.866 1785.13 788.693 1787.23 791.889Z" fill="#DBA12C"/>
<path d="M943.8 581.373L867.598 765.812C867.598 765.812 730.413 749.931 729.151 743.692C727.89 737.452 765.057 540.006 765.057 540.006L943.8 581.373Z" fill="#F2CD33"/>
<path d="M843.54 618.744C834.339 617.13 827.348 621.694 827.416 632.688C827.387 643.665 834.247 650.659 843.449 652.274C852.747 653.905 859.738 649.341 859.767 638.364C859.697 627.369 852.741 620.358 843.54 618.744ZM812.472 614.291L796.49 611.487L833.924 688.341L849.905 691.145L812.472 614.291ZM848.239 636.342C848.233 640.933 846.519 642.729 843.614 642.219C840.708 641.709 838.837 639.285 838.845 634.693C838.852 630.101 840.661 628.323 843.567 628.833C846.472 629.342 848.246 631.75 848.239 636.342ZM802.756 650.326C793.554 648.712 786.66 653.293 786.728 664.287C786.699 675.265 793.559 682.258 802.761 683.873C811.962 685.487 818.953 680.923 818.885 669.929C818.914 658.951 811.957 651.94 802.756 650.326ZM807.553 667.94C807.546 672.532 805.833 674.327 802.831 673.8C800.021 673.307 798.151 670.883 798.158 666.291C798.165 661.7 799.974 659.921 802.783 660.414C805.689 660.924 807.559 663.348 807.553 667.94Z" fill="#DBA12C"/>
</svg>
